<?xml version="1.0" encoding="UTF-8"?>
<svg width="927px" height="523px" viewBox="0 0 927 523" version="1.1" xmlns="http://www.w3.org/2000/svg" xmlns:xlink="http://www.w3.org/1999/xlink">
    <!-- Generator: Sketch 51.3 (57544) - http://www.bohemiancoding.com/sketch -->
    <title>Windy_city_DevFest</title>
    <desc>Created with Sketch.</desc>
    <defs></defs>
    <g id="Page-1" stroke="none" stroke-width="1" fill="none" fill-rule="evenodd">
        <g id="Windy_city_DevFest" transform="translate(0.000000, -1.000000)" fill-rule="nonzero">
            <g id="g10" transform="translate(464.500000, 263.000000) scale(-1, 1) rotate(-180.000000) translate(-464.500000, -263.000000) ">
                <g id="Devfest" transform="translate(55.000000, 0.000000)">
                    <g id="g16-Clipped" transform="translate(0.000000, 0.000000)">
                        <g id="g16" transform="translate(-0.000008, 0.666660)">
                            <g id="g74" transform="translate(0.026000, 0.519460)" fill="#D84538">
                                <path d="M803.99998,127.999997 C803.99998,127.999997 445.719989,0.970666642 412.365323,0.970666642 C379.011991,0.970666642 29.6253326,127.999997 29.6253326,127.999997 C11.4839997,135.067997 1.00666664,139.318663 1.00666664,153.151996 L1.00666664,284.577326 C1.00666664,298.411993 13.885333,309.729326 29.6253326,309.729326 L803.99998,309.729326 C819.73998,309.729326 832.617313,298.411993 832.617313,284.577326 L832.617313,153.151996 C832.617313,139.318663 820.031979,136.943997 803.99998,127.999997" id="path76"></path>
                            </g>
                            <g id="g78" transform="translate(29.865866, 122.061857)" fill="#FFFFFF">
                                <path d="M69.3333316,98.6666642 C69.2506649,86.9119978 69.2079983,80.9626646 69.1253316,69.2079983 C69.0653316,60.6999985 68.5573316,53.6106653 67.606665,47.9906655 C66.654665,42.3693323 65.0813317,38.087999 62.8893318,35.1159991 C60.6986651,32.1453325 57.7799986,30.4906659 54.1399986,30.0773326 C50.4986654,29.6653326 45.9586655,30.3906659 40.5146657,32.1693325 C36.8293324,33.3746658 34.9866658,33.9706658 31.3013326,35.1493325 C31.4359992,72.2639982 31.5639992,109.378664 31.6986659,146.494663 C35.5586658,146.359996 37.4893324,146.291996 41.3506656,146.150663 C46.7226655,145.955996 51.2279987,145.00133 54.8599986,143.230663 C58.4879985,141.459996 61.3893318,138.746663 63.5533317,135.034663 C65.718665,131.322663 67.238665,126.49733 68.1133316,120.530664 C68.9879983,114.562664 69.3946649,107.257331 69.3333316,98.6666642 M96.4266643,129.77333 C93.661331,140.042663 89.7066644,148.271996 84.5599979,154.705329 C79.4146647,161.137329 73.1813315,165.757329 65.8679984,168.893329 C58.5546652,172.027996 50.4213321,173.521329 41.4826656,173.530662 C27.826666,173.546662 14.1706663,173.557329 0.515999987,173.563996 L0.515999987,18.5933329 C13.8919997,14.3386663 27.202666,9.74399976 40.383999,4.91733321 C49.2879988,1.68133329 57.3653319,0.113333331 64.6333317,0.445333322 C71.8986649,0.777333314 78.139998,2.96133326 83.3639979,7.37866648 C88.5866645,11.7906664 92.649331,18.4359995 95.5439976,27.5533326 C98.4399975,36.6706657 99.9559975,48.2599988 100.083997,61.9533318 C100.201331,74.5853315 100.259997,81.0013313 100.377331,93.6359977 C100.505331,107.330664 99.1919975,119.50133 96.4266643,129.77333" id="path80"></path>
                            </g>
                            <g id="g82" transform="translate(150.419863, 61.963592)" fill="#FFFFFF">
                                <path d="M81.3333313,101.333331 C65.1333317,104.722664 48.9719988,108.299997 32.8359992,111.978664 C32.6079992,92.4479977 32.3719992,72.9173315 32.1226659,53.3866653 C51.1559987,46.8519988 70.2293316,40.5026657 89.4119978,34.4173325 C89.1999978,19.4319995 89.0946644,12.4666664 88.8826644,0.64666665 C59.2653319,11.0359997 30.0199992,22.2946661 0.818666646,33.7946658 C1.67733329,100.366664 2.21999994,166.943996 3.07733326,233.517327 C32.6626659,233.471994 62.2479984,233.430661 91.833331,233.401327 C91.6199977,221.534661 91.5146644,214.535995 91.3013311,199.482662 C72.1679982,200.151995 53.0399987,200.882662 33.9106658,201.651995 C33.6853325,184.333329 33.4773325,167.014662 33.2746658,149.694663 C49.4506654,147.363996 65.6373317,145.10933 81.8413313,142.98933 C81.6706646,129.103997 81.5026646,115.218664 81.3333313,101.333331" id="path84"></path>
                            </g>
                            <g id="g86" transform="translate(250.102260, 36.955726)" fill="#FFFFFF">
                                <path d="M58.6666652,67.9999983 C67.950665,131.331997 73.6146648,195.737328 86.8879978,258.40666 C100.855997,258.419994 107.839997,258.43066 121.80933,258.459994 C99.5293308,174.147996 97.5906642,85.4386645 74.3506648,1.30266663 C61.1279985,4.16533323 54.545332,5.80933319 41.4266656,9.4053331 C23.5653327,91.649331 18.8213329,176.299996 0.13333333,258.40266 C14.0119996,258.391994 20.9519995,258.389327 34.8333325,258.38666 C46.1373322,195.507995 51.1786654,131.402663 58.6666652,67.9999983" id="path88"></path>
                            </g>
                            <g id="g90" transform="translate(486.203055, 33.781192)" fill="#FFFFFF">
                                <path d="M82.6666646,122.666664 C66.3519983,119.658664 49.9813321,116.935997 33.5599992,114.579997 C33.3133325,90.5493311 33.0653325,66.5199983 32.7759992,42.4906656 C52.3799987,47.0586655 71.7826649,52.1039987 91.1573311,57.5626652 C91.0146644,42.2493323 90.9426644,37.3559991 90.7999977,25.4413327 C61.1866651,16.3786663 31.5813325,6.38266651 1.1893333,0.438666656 C2.50533327,87.4906645 2.5906666,174.557329 3.94666657,261.61066 C33.5386658,261.57066 63.1319984,261.55866 92.7226643,261.56666 C92.5799977,249.603994 92.5066644,242.474661 92.3626644,227.083994 C73.1559982,226.569328 53.9506653,226.151994 34.7399991,225.853328 C34.4786658,204.599995 34.2573325,183.347995 34.0399991,162.094663 C50.3999987,163.446663 66.7359983,165.070663 83.0466646,166.907996 C82.9199979,152.16133 82.7933313,137.414663 82.6666646,122.666664" id="path92"></path>
                            </g>
                            <g id="g94" transform="translate(707.246116, 119.382790)" fill="#FFFFFF">
                                <path d="M107.999997,150.666663 C95.3039976,150.242663 82.6066646,149.775996 69.9133316,149.274663 C70.2653316,103.947997 70.6066649,58.6199985 70.9679982,13.293333 C58.6506652,8.51866645 52.421332,6.05599985 39.8666657,1.08399997 C39.403999,50.0573321 39.003999,99.0293309 38.567999,148.002663 C25.9879994,147.47733 13.4106663,146.939996 0.831999979,146.399996 C0.747999981,158.930663 0.705333316,164.966663 0.622666651,176.111996 C36.4159991,176.165329 72.2066649,176.214662 107.999997,176.246662 L107.999997,150.666663 Z" id="path96"></path>
                            </g>
                            <g id="g238" transform="translate(385.124924, 14.559860)" fill="#FFFFFF">
                                <path d="M79.999998,119.999997 C64.2319984,118.614664 48.3893321,117.642664 32.5546659,117.683997 C32.5306659,82.7533313 32.5106659,35.1479991 32.4679992,0.218666661 C19.4133328,0.27066666 12.921333,3.25466659 0,4.36266656 C0.68266665,93.201331 0.67066665,192.051995 1.37466663,280.889326 C29.9679993,280.97066 58.5573319,280.929326 87.1493312,280.86266 C86.9893312,269.18666 86.9106645,261.637327 86.7506645,244.841327 C68.7146649,244.919994 50.6826654,245.458661 32.6466659,245.445327 C32.6253325,220.629328 32.6079992,195.814662 32.5906659,170.999996 C48.5239988,171.022662 64.4479984,171.203996 80.3666647,171.878662 C80.243998,154.585329 80.1226647,137.29333 79.999998,119.999997" id="path240"></path>
                            </g>
                            <g id="g258" transform="translate(590.779985, 79.649725)" fill="#FFFFFF">
                                <path d="M71.9999982,62.6666651 C71.9959982,66.302665 71.7399982,69.5279983 71.2306649,72.3186649 C70.7226649,75.1093315 69.6533316,77.6079981 68.026665,79.8253313 C66.398665,82.0426646 64.0839984,84.0519979 61.0866651,85.8786645 C58.0919985,87.7039978 54.101332,89.5053311 49.1239988,91.3599977 C43.2093323,93.321331 37.5719991,95.9786643 32.2173325,99.3546642 C26.8639993,102.729331 22.1693328,107.209331 18.1386662,112.754664 C14.1079996,118.299997 10.9173331,125.08933 8.56799979,132.93733 C6.21733318,140.78133 5.08399987,150.115996 5.15866654,160.395996 C5.2293332,170.242662 6.50799984,178.906662 8.98666644,186.357329 C11.465333,193.805328 14.9106663,199.705328 19.3159995,204.346662 C23.7199994,208.986661 28.9253326,212.337328 34.9386658,214.671995 C40.9493323,217.007995 47.5693321,218.105328 54.805332,218.105328 C62.2559984,218.105328 68.9799983,216.854661 74.9826648,214.286661 C80.9853313,211.718661 86.1159978,208.107995 90.3626644,203.331995 C94.6119976,198.558662 97.8959976,192.735995 100.210664,185.733329 C102.526664,178.731996 103.709331,170.825329 103.753331,161.859996 C91.1999977,160.694663 84.9133312,160.113329 72.3333315,158.979996 C72.3279982,163.443996 71.9839982,167.455996 71.3026649,171.051996 C70.6199982,174.643996 69.5453316,177.657329 68.0813316,180.131995 C66.6159983,182.603995 64.742665,184.493329 62.4626651,185.823995 C60.1813318,187.154662 57.4359986,187.769329 54.2279986,187.662662 C51.2333321,187.562662 48.6453321,186.882662 46.4693322,185.590662 C44.2893322,184.298662 42.4826656,182.553329 41.0493323,180.326662 C39.6133323,178.099996 38.5333324,175.433329 37.8093324,172.311996 C37.0839991,169.186662 36.7133324,165.823996 36.6999991,162.231996 C36.6879991,158.538663 37.2306657,155.191996 38.3306657,152.258663 C39.431999,149.322663 40.999999,146.635996 43.0373323,144.226663 C45.0746655,141.818663 47.5453321,139.63333 50.4479987,137.69733 C53.3506653,135.759997 56.5626653,133.947997 60.0813318,132.28133 C67.4053316,129.503997 73.8053315,126.36533 79.2733314,122.84133 C84.7413312,119.315997 89.3199978,115.20933 93.005331,110.501331 C96.6906642,105.794664 99.4493308,100.353331 101.277331,94.157331 C103.105331,87.9599978 104.041331,80.815998 104.082664,72.7586648 C104.126664,64.1666651 103.029331,56.3866653 100.783997,49.2279988 C98.5399975,42.0733323 95.305331,35.7053324 91.0773311,29.9986659 C86.8466645,24.2906661 81.7093313,19.2946662 75.6666648,14.925333 C69.6199983,10.5573331 62.7919984,6.98799983 55.1919986,4.21333323 C48.3199988,1.70399996 41.5733323,0.341333325 34.9719991,0.265333327 C28.3653326,0.190666662 22.4906661,1.68666662 17.3533329,5.12533321 C12.2146664,8.56266645 8.10266646,14.0826663 5.01466654,22.1293328 C1.92533329,30.1746659 0.441333322,41.1146656 0.543999986,55.0079986 C13.3346663,58.1293319 19.7466662,59.7679985 32.5653325,63.1386651 C32.5373325,56.1506653 32.9866658,50.4906654 33.9119992,46.1133322 C34.8373325,41.7346656 36.2586658,38.5053324 38.175999,36.3533324 C40.0906657,34.1999991 42.4719989,33.0319992 45.3039989,32.7919992 C48.1359988,32.5493325 51.4466654,33.0759992 55.2319986,34.3426658 C58.2853319,35.3639991 60.8866651,36.8093324 63.0306651,38.6666657 C65.1733317,40.5226657 66.9173317,42.6519989 68.2613316,45.0733322 C69.6026649,47.4893321 70.5613316,50.1799987 71.1386649,53.1706653 C71.7173315,56.1613319 72.0039982,59.3173319 71.9999982,62.6666651" id="path260"></path>
                            </g>
                        </g>
                    </g>
                </g>
                <g id="Windy-City" transform="translate(0.000000, 250.000000)" fill="#00ABFE">
                    <g id="g172-Clipped">
                        <g id="g172" transform="translate(0.333327, 0.666660)">
                            <g id="g218" transform="translate(0.164000, 67.228518)">
                                <path d="M63.9999984,0 C57.5066652,0.239999994 43.0759989,5.77199986 40.6706656,10.5813331 C38.2666657,40.1626657 76.9866647,135.88133 93.0999977,171.234662 C60.3919985,146.222663 22.3933328,86.5799978 20.9506661,48.8213321 C9.64666643,52.1879987 -0.213333328,64.694665 0.507999987,75.5159981 C7.9639998,109.186664 48.6079988,163.778663 101.998664,189.513329 C102.479997,190.234662 102.719997,190.955995 103.201331,191.677329 C109.453331,195.043995 131.338663,190.955995 133.503997,183.499995 C118.351997,169.791996 74.1013315,53.8719987 65.202665,20.6826661 C68.5693316,18.7586662 147.69333,143.33733 154.907996,159.450663 C163.806663,162.095996 174.147996,159.931996 181.603995,154.881329 C162.603996,112.793331 136.870663,43.5293322 130.858663,20.6826661 C155.870663,46.6559988 206.134662,130.831997 224.653328,190.955995 C230.183994,195.043995 253.271994,190.715995 255.437327,183.019995 C242.690661,148.627996 182.565329,45.4533322 129.655997,0 C123.162664,0.239999994 108.731997,5.77199986 106.327997,10.5813331 C108.250664,28.618666 113.782664,54.833332 124.60533,86.0986645 C109.453331,62.0479984 70.4933316,1.92399995 63.9999984,0" id="path220"></path>
                            </g>
                            <g id="g222" transform="translate(203.886128, 84.231051)">
                                <path d="M65.666665,164.333329 C55.3253319,147.25733 56.0466652,147.978663 49.3119987,130.422663 C52.4386653,128.739997 60.3759985,126.574663 67.350665,125.611997 C77.4506647,140.042663 87.7919978,149.903996 99.8173308,162.889329 C88.2733311,165.535996 74.3239981,165.535996 65.666665,164.333329 M0.250666635,11.857333 C4.81999985,33.5013325 25.022666,87.1333311 40.1733323,118.638664 C45.2239988,118.878664 67.8306649,113.347997 64.7039984,107.815997 C52.9199987,91.221331 24.0599994,29.4133326 20.4519995,11.857333 C34.6413324,27.7293326 48.5906654,43.3626656 58.4519985,50.817332 C63.5013317,54.6666653 69.2746649,56.3493319 74.5653314,50.0959987 C62.7799984,45.5266655 28.3893326,10.6546664 18.5279995,0.0719999732 C10.833333,-0.168000021 1.6946666,5.60399983 0.250666635,11.857333" id="path224"></path>
                            </g>
                            <g id="g226" transform="translate(245.775994, 84.203051)">
                                <path d="M41.3333323,118.666664 C46.3839988,118.906664 68.9906649,113.375997 65.6239984,107.843997 C61.5346651,101.590664 54.801332,87.1613312 47.1053322,72.4906649 C57.2053319,88.1226645 75.2439981,103.033331 84.1413312,111.691997 C88.2306645,115.299997 92.5586644,117.463997 96.1666643,116.02133 C99.0533309,114.578664 109.634664,107.603997 109.634664,103.995997 C109.393331,102.793331 108.191997,99.4266642 107.710664,98.4653309 C95.6853309,72.4906649 79.331998,31.3653325 73.7999982,13.0866663 C87.9893311,28.9599993 101.457331,43.3906656 111.318664,50.8453321 C116.367997,54.6946653 122.139997,56.3773319 127.191997,50.1239987 C115.646664,45.5546655 78.6106647,11.1639997 70.1933316,0.0999999975 C62.7373318,-0.139999997 49.2693321,5.39066653 49.2693321,11.885333 C54.801332,36.8973324 71.8759982,73.2119982 83.4199979,97.5026642 C71.1546649,86.4399978 42.2946656,58.7826652 25.2199994,20.0613328 C23.2959994,14.7706663 19.9279995,4.91066654 18.4853329,0.0999999975 C11.0293331,0.0999999975 0.92933331,5.63199986 0.92933331,11.885333 C13.1946663,48.4413321 25.6999994,79.9453313 41.3333323,118.666664" id="path228"></path>
                            </g>
                            <g id="g230" transform="translate(343.422525, 83.802785)">
                                <path d="M74.9999981,93.333331 L61.0519984,105.838664 C51.6719987,96.4599976 39.1666657,75.0559981 30.7493325,55.5746653 C29.7866659,53.4106653 16.0786662,21.1839995 23.774666,19.2599995 C39.887999,28.638666 62.9746651,74.0933315 74.9999981,93.333331 M135.606663,159.470663 C107.707997,113.054664 78.607998,42.8293323 67.3039983,12.285333 C81.4933313,28.158666 95.4426643,43.7906656 105.543997,51.2466654 C110.353331,55.0946653 116.12533,56.7773319 121.41733,50.5253321 C109.631997,45.9546655 75.2413314,11.0826664 65.3799983,0.499999988 C57.6839985,0.259999993 48.5453321,6.03199985 47.1026655,12.285333 C48.3053321,19.4999995 52.6346653,32.7279992 58.4053318,48.6013321 C46.6213321,27.9173326 32.6719992,7.23466649 18.7226662,1.94399995 C12.229333,2.18399995 2.61066658,6.51333317 0.445333297,11.3239997 C-2.19999997,42.3479989 30.7493325,108.725331 55.2786653,120.26933 C55.2786653,120.26933 55.5199986,120.50933 55.9999986,120.26933 C63.9373317,117.623997 73.7973315,112.333331 81.9746646,107.763997 C92.797331,133.49733 103.619997,157.305329 110.113331,170.293329 C115.163997,170.533329 138.73333,165.001329 135.606663,159.470663" id="path232"></path>
                            </g>
                            <g id="g234" transform="translate(346.584658, 0.391853)">
                                <path d="M130.999997,87.9999978 C125.46933,88.2413311 123.063997,88.4813311 117.051997,88.2413311 C125.46933,94.253331 134.126663,105.797331 142.063996,118.783997 C139.41733,108.682664 135.810663,98.1013309 130.999997,87.9999978 M44.4199989,12.2426664 C6.42133315,8.63599978 17.4853329,43.5079989 43.6986655,60.5839985 C69.9133316,77.6586647 100.217331,81.747998 127.63333,80.063998 C107.671997,41.583999 77.3693314,16.5719996 44.4199989,12.2426664 M153.126663,86.0759978 C155.531996,91.3666644 157.695996,96.8986642 160.582663,105.075997 C172.607996,136.58133 183.430662,161.111996 200.025328,191.654662 C203.391995,197.186662 180.785329,202.718662 175.733329,202.477328 C169.962662,190.693329 163.949329,178.427996 156.735996,159.909329 C151.20133,149.807996 145.430663,139.466663 139.659996,130.327997 C129.55733,114.214664 119.69733,100.746664 116.330664,102.670664 C108.634664,104.594664 122.342664,136.82133 123.30533,138.98533 C130.038663,155.099996 141.342663,178.187996 150.24133,191.654662 C153.126663,197.186662 131.962663,203.198662 127.39333,202.718662 C116.08933,178.427996 90.837331,119.02533 92.761331,94.7346643 C94.6853309,91.1266644 98.2919975,88.9626644 101.899997,87.5199978 C69.1919982,84.8733312 46.8253321,80.303998 21.3333328,62.2666651 C-12.577333,33.1666658 -2.23599997,5.2693332 28.5479993,1.17999997 C79.7746646,-5.07333321 118.01333,27.154666 143.74933,68.7599983 C146.151996,72.3679982 147.83733,75.4946648 149.519996,78.379998 C164.189329,75.4946648 176.935996,68.5199983 181.263995,58.4186652 C186.795995,61.7853318 198.099995,65.3933317 202.427995,67.798665 C186.555995,79.1013314 166.355996,83.9119979 153.126663,86.0759978" id="path236"></path>
                            </g>
                            <g id="g242" transform="translate(551.937453, 51.069585)">
                                <path d="M146.666663,100.333331 C156.767996,99.6119975 167.109329,93.3586643 169.994662,83.0173312 C168.073329,63.2959984 124.059997,24.8159994 101.213331,21.9306661 C92.5546644,24.094666 83.1746646,28.9053326 78.6066647,33.7146658 C72.3546649,56.5626652 75.9613314,89.2706644 85.3413312,120.294664 C51.1906654,85.9026645 23.7733327,44.2973322 24.734666,0.0453333072 C12.9506663,6.29866648 1.40666663,17.8413329 0.445333322,33.2333325 C11.0266664,78.2066647 55.2786653,118.370664 96.1613309,149.394663 C110.351997,181.381329 132.958663,212.405328 166.869329,222.747994 C177.210662,215.773328 178.893329,204.709328 176.007996,192.443995 C181.538662,193.646662 188.033329,195.089328 195.007995,193.406662 C182.981329,180.659995 161.817329,142.66133 161.578663,127.26933 C150.754663,133.762663 143.059996,143.382663 143.299996,149.875996 C146.426663,158.533329 155.565329,171.761329 164.945329,182.583995 C155.565329,177.293329 146.187996,172.242662 137.767997,164.546663 C110.351997,126.787997 93.757331,63.5373317 101.934664,34.9173324 C123.819997,44.0559989 152.918663,89.9919977 146.666663,100.333331" id="path244"></path>
                            </g>
                            <g id="g246" transform="translate(715.911449, 84.231051)">
                                <path d="M65.666665,164.333329 C55.3253319,147.25733 56.0466652,147.978663 49.3146654,130.422663 C52.4399987,128.739997 60.3773318,126.574663 67.3519983,125.611997 C77.4533314,140.042663 87.7946644,149.903996 99.8173308,162.889329 C88.2759978,165.535996 74.3253315,165.535996 65.666665,164.333329 M0.251999969,11.857333 C4.82266652,33.5013325 25.0239993,87.1333311 40.1746656,118.638664 C45.2266655,118.878664 67.8333316,113.347997 64.7053317,107.815997 C52.921332,91.221331 24.062666,29.4133326 20.4533328,11.857333 C34.6426658,27.7293326 48.5906654,43.3626656 58.4533318,50.817332 C63.5026651,54.6666653 69.2759982,56.3493319 74.5653314,50.0959987 C62.7813317,45.5266655 28.3906659,10.6546664 18.5306662,0.0719999732 C10.833333,-0.168000021 1.6946666,5.60399983 0.251999969,11.857333" id="path248"></path>
                            </g>
                            <g id="g250" transform="translate(760.416648, 83.333318)">
                                <path d="M109.666664,137.33333 C109.426664,136.370663 108.945331,135.40933 107.983997,134.206663 C107.262664,133.003997 106.299997,131.80133 105.095997,130.358663 C104.135997,129.155997 103.174664,128.194663 102.453331,127.471997 C102.210664,127.471997 101.971997,127.231997 101.489331,126.991997 L99.8066641,126.991997 C92.5906643,126.991997 77.9213314,127.231997 70.7053315,127.231997 C49.0599987,85.1453312 29.3413326,36.5639991 20.4426661,12.7546663 C34.6306658,28.6279993 52.1879987,44.2599989 62.0466651,51.7159987 C67.098665,55.5639986 77.9213314,57.2479986 83.2106646,50.9946654 C67.098665,46.6653322 27.8986659,12.033333 18.5186662,0.970666642 C10.8226664,0.729333315 1.6826666,6.50133317 0.239999969,12.7546663 C3.12533323,30.7919992 25.010666,85.6253312 43.5279989,127.95333 C37.7573324,127.95333 38.7186657,128.194663 33.1879991,128.194663 L32.9479992,128.194663 L32.9479992,128.434663 C32.9479992,128.915997 33.1879991,129.63733 33.4293325,130.358663 C33.6693325,131.32133 34.1506658,132.282663 34.6306658,133.24533 C35.1119991,133.966663 35.8333324,134.927997 36.3146657,135.64933 C37.035999,136.611997 37.7573324,137.091997 38.239999,137.091997 C43.5279989,137.33333 42.3279989,137.57333 47.8599988,137.57333 C53.8719986,151.28133 59.4039985,163.066663 63.2493317,170.762662 C68.3026649,171.002662 91.869331,165.471996 88.5026644,159.939996 C84.4146645,153.206663 80.3253313,145.750663 76.2373314,138.294663 C84.6559979,138.294663 100.527997,138.535997 108.945331,138.775997 C109.906664,138.775997 109.906664,138.294663 109.666664,137.33333" id="path252"></path>
                            </g>
                            <g id="g254" transform="translate(723.088515, 0.509053)">
                                <path d="M142.666663,118.666664 C134.72933,105.679997 126.07333,94.1359976 117.655997,88.1239978 C123.666664,88.3639978 126.07333,88.1239978 131.603997,87.8826645 C136.414663,97.9839976 140.02133,108.565331 142.666663,118.666664 M128.23733,79.9466647 C100.819997,81.6306646 70.5186649,77.5413314 44.3026656,60.4666652 C18.0879995,43.3906656 7.02666649,8.51866645 45.0239989,12.125333 C77.9733314,16.4546663 108.275997,41.4666656 128.23733,79.9466647 M144.351996,68.642665 C118.61733,27.0373327 80.3773313,-5.19066654 29.1506659,1.06266664 C-1.63333329,5.15199987 -11.973333,33.0493325 21.9373328,62.1493318 C47.4293321,80.1866647 69.7973316,84.7559979 102.502664,87.4026645 C98.8959975,88.8453311 95.289331,91.0093311 93.3639977,94.617331 C91.4399977,118.907997 116.69333,178.310662 127.99733,202.601328 C132.56533,203.082662 153.729329,197.069328 150.843996,191.537329 C141.94533,178.070662 130.642663,154.982663 123.90933,138.867997 C122.94533,136.703997 109.237331,104.477331 116.931997,102.553331 C120.299997,100.629331 130.16133,114.09733 140.262663,130.210663 C146.03333,139.34933 151.80533,149.691996 157.338663,159.791996 C164.551996,178.310662 170.565329,190.575995 176.335996,202.361328 C181.387995,202.601328 203.994662,197.069328 200.627995,191.537329 C184.033329,160.994663 173.210662,136.463997 161.185329,104.958664 C158.299996,96.7813309 156.135996,91.2506644 153.729329,85.9586645 C166.958662,83.7946646 187.158662,78.983998 203.030662,67.6813316 C198.702662,65.2759984 187.398662,61.6679985 181.866662,58.3013319 C177.538662,68.402665 164.791996,75.3773314 150.122663,78.2626647 C148.439996,75.3773314 146.754663,72.2506649 144.351996,68.642665" id="path256"></path>
                            </g>
                        </g>
                    </g>
                </g>
            </g>
        </g>
    </g>
</svg>