<svg width="900" height="413" viewBox="0 0 900 413" fill="none" xmlns="http://www.w3.org/2000/svg">
<g clip-path="url(#clip0_101_38)">
<path d="M147.951 193.121L125.458 205.327L118.221 189.459C110.724 198.701 99.6513 205.327 85.2659 205.327C57.8901 205.327 43.592 182.659 43.592 147.609C43.592 109.508 60.5057 89.0188 87.4455 89.0188C100.087 89.0188 109.939 93.7269 116.303 102.533V46.3839H139.407V176.032L147.951 193.121ZM116.303 177.689V117.965C110.288 113.083 102.79 110.031 94.9433 110.031C77.8553 110.031 67.7419 123.109 67.7419 147.696C67.7419 171.237 77.1578 184.315 94.5074 184.315C102.18 184.315 110.113 181.787 116.303 177.689Z" fill="white"/>
<path d="M262.598 149.702H186.835C188.405 169.144 203.575 182.223 227.55 182.223C239.756 182.223 253.008 179.694 261.988 174.986L254.752 198.701C247.254 202.799 234.612 205.327 220.139 205.327C185.702 205.327 163.034 182.048 163.034 146.476C163.034 110.729 184.656 88.9316 219.093 88.9316C247.515 88.9316 265.475 105.149 265.475 131.479C265.388 137.495 264.342 144.557 262.598 149.702ZM188.23 133.659H242.807C241.761 117.006 233.827 109.072 219.093 109.072C202.964 109.072 191.805 118.227 188.23 133.659Z" fill="white"/>
<path d="M318.919 202.537L275.24 91.7216H300.697L329.119 169.144L332.345 178.735H333.217L336.443 169.144L364.69 91.7216H389.712L346.295 202.537H318.919Z" fill="white"/>
<path d="M465.388 91.9832H515.432L512.206 109.77H462.162L444.638 209.425C439.756 237.238 421.098 247.701 395.03 247.701C383.086 247.701 377.507 245.957 371.491 244.736L371.055 226.776C377.071 227.822 384.132 228.519 393.984 228.519C409.59 228.519 419.878 222.329 422.232 209.251L439.756 109.77H404.882L408.108 91.9832H442.982L444.725 81.695C449.608 54.0565 468.003 43.5939 493.897 43.5939C506.103 43.5939 512.293 45.3377 517.611 46.5583L518.047 64.955C512.031 63.4728 504.969 62.7753 495.118 62.7753C479.686 62.7753 469.486 68.9656 467.132 82.0438L465.388 91.9832Z" fill="white"/>
<path d="M618.832 149.702H543.069C544.551 169.144 559.721 182.223 583.697 182.223C595.902 182.223 609.154 179.694 618.134 174.986L610.898 198.701C603.4 202.799 590.758 205.327 576.286 205.327C541.848 205.327 519.18 182.048 519.18 146.476C519.18 110.729 540.802 88.9316 575.24 88.9316C603.662 88.9316 621.622 105.149 621.622 131.479C621.534 137.495 620.488 144.557 618.832 149.702ZM544.377 133.659H598.954C597.908 117.006 589.974 109.072 575.24 109.072C559.111 109.072 547.951 118.227 544.377 133.659Z" fill="white"/>
<path d="M643.592 195.911L642.11 171.063C651.962 177.95 669.921 183.879 688.753 183.879C703.051 183.879 713.339 179.345 713.339 169.319C713.339 148.394 644.464 167.837 644.464 125.027C644.464 105.149 659.459 88.2341 695.205 88.2341C717.001 88.2341 733.74 93.5526 733.74 106.805C733.74 110.903 731.996 114.303 730.34 117.529C720.924 112.995 706.19 109.857 693.723 109.857C676.635 109.857 667.655 116.309 667.655 123.371C667.655 141.942 737.402 125.725 737.402 167.401C737.402 190.68 716.826 205.24 686.312 205.24C665.388 205.327 649.782 198.701 643.592 195.911Z" fill="white"/>
<path d="M856.408 178.997L851.7 200.619C846.12 202.973 835.048 205.327 824.76 205.327C797.123 205.327 785.44 191.029 785.44 170.714V111.252H753.967V91.8088H785.44V61.3802H808.544V91.7216H853.269V111.165H808.544V163.564C808.544 177.863 816.042 184.315 829.119 184.315C836.53 184.315 850.218 182.659 856.408 178.997Z" fill="white"/>
<path d="M346.714 315.264H357.274V348.096H357.85L385.882 315.264H398.938V315.84L373.786 344.736L401.146 383.424V384H388.281L366.586 352.992L357.274 363.84V384H346.714V315.264ZM422.221 385.536C418.701 385.536 415.565 384.864 412.812 383.52C410.061 382.112 407.917 380.16 406.381 377.664C404.845 375.168 404.077 372.32 404.077 369.12C404.077 365.728 404.973 362.816 406.765 360.384C408.557 357.888 410.989 356 414.061 354.72C417.133 353.376 420.557 352.704 424.333 352.704C427.213 352.704 429.805 352.992 432.109 353.568C434.477 354.08 436.365 354.688 437.773 355.392V352.8C437.773 349.664 436.621 347.136 434.317 345.216C432.013 343.232 429.037 342.24 425.389 342.24C422.893 342.24 420.525 342.816 418.285 343.968C416.045 345.056 414.253 346.56 412.909 348.48L405.805 343.008C407.917 340 410.701 337.664 414.157 336C417.677 334.336 421.517 333.504 425.677 333.504C432.717 333.504 438.157 335.264 441.997 338.784C445.901 342.24 447.853 347.104 447.853 353.376V384H437.773V377.952H437.197C435.789 380.128 433.773 381.952 431.149 383.424C428.525 384.832 425.549 385.536 422.221 385.536ZM424.045 377.088C426.605 377.088 428.941 376.48 431.053 375.264C433.165 373.984 434.797 372.288 435.949 370.176C437.165 368.064 437.773 365.792 437.773 363.36C436.237 362.464 434.477 361.76 432.493 361.248C430.509 360.736 428.429 360.48 426.253 360.48C422.221 360.48 419.245 361.28 417.325 362.88C415.469 364.48 414.541 366.592 414.541 369.216C414.541 371.52 415.405 373.408 417.133 374.88C418.861 376.352 421.165 377.088 424.045 377.088ZM459.267 335.04H469.059V341.76H469.635C471.043 339.328 473.155 337.344 475.971 335.808C478.787 334.272 481.827 333.504 485.091 333.504C490.979 333.504 495.459 335.264 498.531 338.784C501.603 342.24 503.139 347.008 503.139 353.088V384H492.867V354.432C492.867 350.592 491.907 347.744 489.987 345.888C488.067 343.968 485.443 343.008 482.115 343.008C479.683 343.008 477.507 343.68 475.587 345.024C473.731 346.368 472.259 348.16 471.171 350.4C470.147 352.64 469.635 355.072 469.635 357.696V384H459.267V335.04ZM532.342 385.536C526.774 385.536 522.166 384.32 518.518 381.888C514.934 379.456 512.406 376.288 510.934 372.384L520.246 368.352C521.398 370.976 523.03 372.992 525.142 374.4C527.254 375.744 529.654 376.416 532.342 376.416C535.094 376.416 537.398 375.936 539.254 374.976C541.11 373.952 542.038 372.448 542.038 370.464C542.038 368.672 541.238 367.264 539.638 366.24C538.102 365.152 535.67 364.224 532.342 363.456L526.486 362.112C522.582 361.152 519.35 359.456 516.79 357.024C514.23 354.592 512.95 351.52 512.95 347.808C512.95 344.992 513.782 342.496 515.446 340.32C517.174 338.144 519.446 336.48 522.262 335.328C525.142 334.112 528.278 333.504 531.67 333.504C536.278 333.504 540.278 334.4 543.67 336.192C547.126 337.984 549.622 340.608 551.158 344.064L542.23 348.096C540.246 344.192 536.758 342.24 531.766 342.24C529.334 342.24 527.286 342.752 525.622 343.776C524.022 344.8 523.222 346.08 523.222 347.616C523.222 350.496 525.718 352.576 530.71 353.856L537.814 355.584C542.614 356.8 546.23 358.624 548.662 361.056C551.158 363.488 552.406 366.496 552.406 370.08C552.406 373.152 551.51 375.872 549.718 378.24C547.99 380.544 545.59 382.336 542.518 383.616C539.446 384.896 536.054 385.536 532.342 385.536ZM577.283 385.536C573.763 385.536 570.627 384.864 567.875 383.52C565.123 382.112 562.979 380.16 561.443 377.664C559.907 375.168 559.139 372.32 559.139 369.12C559.139 365.728 560.035 362.816 561.827 360.384C563.619 357.888 566.051 356 569.123 354.72C572.195 353.376 575.619 352.704 579.395 352.704C582.275 352.704 584.867 352.992 587.171 353.568C589.539 354.08 591.427 354.688 592.835 355.392V352.8C592.835 349.664 591.683 347.136 589.379 345.216C587.075 343.232 584.099 342.24 580.451 342.24C577.955 342.24 575.587 342.816 573.347 343.968C571.107 345.056 569.315 346.56 567.971 348.48L560.867 343.008C562.979 340 565.763 337.664 569.219 336C572.739 334.336 576.579 333.504 580.739 333.504C587.779 333.504 593.219 335.264 597.059 338.784C600.963 342.24 602.915 347.104 602.915 353.376V384H592.835V377.952H592.259C590.851 380.128 588.835 381.952 586.211 383.424C583.587 384.832 580.611 385.536 577.283 385.536ZM579.107 377.088C581.667 377.088 584.003 376.48 586.115 375.264C588.227 373.984 589.859 372.288 591.011 370.176C592.227 368.064 592.835 365.792 592.835 363.36C591.299 362.464 589.539 361.76 587.555 361.248C585.571 360.736 583.491 360.48 581.315 360.48C577.283 360.48 574.307 361.28 572.387 362.88C570.531 364.48 569.603 366.592 569.603 369.216C569.603 371.52 570.467 373.408 572.195 374.88C573.923 376.352 576.227 377.088 579.107 377.088ZM631.717 385.536C626.149 385.536 621.541 384.32 617.893 381.888C614.309 379.456 611.781 376.288 610.309 372.384L619.621 368.352C620.773 370.976 622.405 372.992 624.517 374.4C626.629 375.744 629.029 376.416 631.717 376.416C634.469 376.416 636.773 375.936 638.629 374.976C640.485 373.952 641.413 372.448 641.413 370.464C641.413 368.672 640.613 367.264 639.013 366.24C637.477 365.152 635.045 364.224 631.717 363.456L625.861 362.112C621.957 361.152 618.725 359.456 616.165 357.024C613.605 354.592 612.325 351.52 612.325 347.808C612.325 344.992 613.157 342.496 614.821 340.32C616.549 338.144 618.821 336.48 621.637 335.328C624.517 334.112 627.653 333.504 631.045 333.504C635.653 333.504 639.653 334.4 643.045 336.192C646.501 337.984 648.997 340.608 650.533 344.064L641.605 348.096C639.621 344.192 636.133 342.24 631.141 342.24C628.709 342.24 626.661 342.752 624.997 343.776C623.397 344.8 622.597 346.08 622.597 347.616C622.597 350.496 625.093 352.576 630.085 353.856L637.189 355.584C641.989 356.8 645.605 358.624 648.037 361.056C650.533 363.488 651.781 366.496 651.781 370.08C651.781 373.152 650.885 375.872 649.093 378.24C647.365 380.544 644.965 382.336 641.893 383.616C638.821 384.896 635.429 385.536 631.717 385.536ZM715.441 385.536C708.785 385.536 702.705 383.968 697.201 380.832C691.761 377.696 687.473 373.376 684.337 367.872C681.201 362.368 679.633 356.288 679.633 349.632C679.633 342.976 681.201 336.896 684.337 331.392C687.473 325.888 691.761 321.568 697.201 318.432C702.705 315.296 708.785 313.728 715.441 313.728C725.745 313.728 734.225 317.472 740.881 324.96L733.489 332.16C731.121 329.344 728.465 327.232 725.521 325.824C722.641 324.416 719.313 323.712 715.537 323.712C710.865 323.712 706.609 324.8 702.769 326.976C698.929 329.088 695.889 332.128 693.649 336.096C691.409 340 690.289 344.512 690.289 349.632C690.289 354.752 691.409 359.296 693.649 363.264C695.889 367.168 698.929 370.208 702.769 372.384C706.609 374.496 710.865 375.552 715.537 375.552C723.345 375.552 729.905 372.32 735.217 365.856L742.801 373.152C739.473 377.056 735.473 380.096 730.801 382.272C726.128 384.448 721.009 385.536 715.441 385.536ZM757.906 327.84C755.986 327.84 754.322 327.168 752.914 325.824C751.57 324.416 750.898 322.752 750.898 320.832C750.898 318.912 751.57 317.28 752.914 315.936C754.322 314.592 755.986 313.92 757.906 313.92C759.826 313.92 761.458 314.592 762.802 315.936C764.21 317.28 764.914 318.912 764.914 320.832C764.914 322.752 764.21 324.416 762.802 325.824C761.458 327.168 759.826 327.84 757.906 327.84ZM752.722 335.04H763.09V384H752.722V335.04ZM795.55 384.768C793.374 384.768 791.326 384.448 789.406 383.808C787.55 383.104 786.014 382.144 784.798 380.928C782.046 378.304 780.67 374.592 780.67 369.792V344.064H772.126V335.04H780.67V321.216H791.038V335.04H803.038V344.064H791.038V367.584C791.038 370.272 791.55 372.16 792.574 373.248C793.662 374.464 795.326 375.072 797.566 375.072C798.718 375.072 799.71 374.944 800.542 374.688C801.374 374.368 802.302 373.888 803.326 373.248V383.328C801.15 384.288 798.558 384.768 795.55 384.768ZM828.716 381.312L808.268 335.04H819.788L833.804 368.448H834.284L847.82 335.04H859.244L829.004 404.736H817.964L828.716 381.312Z" fill="white"/>
</g>
<defs>
<clipPath id="clip0_101_38">
<rect width="900" height="413" fill="white"/>
</clipPath>
</defs>
</svg>
