<svg width="271" height="155" viewBox="0 0 271 155" fill="none" xmlns="http://www.w3.org/2000/svg">
<g clip-path="url(#clip0_160_7633)">
<mask id="mask0_160_7633" style="mask-type:alpha" maskUnits="userSpaceOnUse" x="0" y="0" width="355" height="203">
<g clip-path="url(#clip1_160_7633)">
<path d="M34.7943 93.7874L27.2948 97.9168L24.8821 92.5486C22.3823 95.6752 18.6907 97.9168 13.8945 97.9168C4.76714 97.9168 0 90.248 0 78.3909C0 65.5014 5.63917 58.57 14.6212 58.57C18.836 58.57 22.1207 60.1627 24.2426 63.1418V44.1467H31.9456V88.0064L34.7943 93.7874ZM24.2426 88.5668V68.3624C22.2369 66.7107 19.7371 65.6784 17.121 65.6784C11.4237 65.6784 8.05181 70.1027 8.05181 78.4204C8.05181 86.3841 11.1911 90.8084 16.9757 90.8084C19.5336 90.8084 22.1788 89.9531 24.2426 88.5668Z" fill="black"/>
<path d="M73.0185 79.0987H47.7585C48.2818 85.6762 53.3396 90.1005 61.3332 90.1005C65.4027 90.1005 69.8211 89.2452 72.8151 87.6524L70.4024 95.6751C67.9026 97.0614 63.6877 97.9168 58.8625 97.9168C47.3807 97.9168 39.823 90.0415 39.823 78.0074C39.823 65.9143 47.0318 58.5405 58.5137 58.5405C67.9898 58.5405 73.9778 64.0266 73.9778 72.9342C73.9487 74.9694 73.5999 77.3585 73.0185 79.0987ZM48.2236 73.6716H66.4201C66.0713 68.038 63.4261 65.3539 58.5137 65.3539C53.1361 65.3539 49.4154 68.4509 48.2236 73.6716Z" fill="black"/>
<path d="M91.7964 96.973L77.2334 59.4843H85.7212L95.1974 85.6762L96.2729 88.9207H96.5636L97.6391 85.6762L107.057 59.4843H115.4L100.924 96.973H91.7964Z" fill="black"/>
<path d="M140.63 59.5728H157.315L156.24 65.5899H139.555L133.712 99.3031C132.084 108.712 125.864 112.252 117.173 112.252C113.19 112.252 111.33 111.662 109.324 111.249L109.179 105.173C111.185 105.527 113.539 105.763 116.824 105.763C122.027 105.763 125.457 103.668 126.242 99.2441L132.084 65.5899H120.457L121.533 59.5728H133.16L133.741 56.0924C135.369 46.7423 141.502 43.2029 150.136 43.2029C154.205 43.2029 156.269 43.7928 158.042 44.2057L158.187 50.4293C156.182 49.9278 153.827 49.6919 150.543 49.6919C145.398 49.6919 141.997 51.786 141.212 56.2104L140.63 59.5728Z" fill="black"/>
<path d="M191.79 79.0987H166.53C167.024 85.6762 172.082 90.1005 180.076 90.1005C184.145 90.1005 188.563 89.2452 191.557 87.6524L189.145 95.6751C186.645 97.0614 182.43 97.9168 177.605 97.9168C166.123 97.9168 158.565 90.0415 158.565 78.0074C158.565 65.9143 165.774 58.5405 177.256 58.5405C186.732 58.5405 192.72 64.0266 192.72 72.9342C192.691 74.9694 192.342 77.3585 191.79 79.0987ZM166.966 73.6716H185.163C184.814 68.038 182.169 65.3539 177.256 65.3539C171.879 65.3539 168.158 68.4509 166.966 73.6716Z" fill="black"/>
<path d="M200.045 94.7313L199.551 86.3251C202.836 88.6553 208.824 90.6609 215.102 90.6609C219.87 90.6609 223.3 89.1272 223.3 85.7352C223.3 78.6563 200.336 85.2338 200.336 70.7516C200.336 64.0266 205.336 58.3045 217.254 58.3045C224.52 58.3045 230.102 60.1037 230.102 64.587C230.102 65.9733 229.52 67.1236 228.968 68.215C225.829 66.6812 220.916 65.6194 216.759 65.6194C211.062 65.6194 208.068 67.802 208.068 70.1912C208.068 76.4737 231.322 70.9875 231.322 85.0863C231.322 92.9616 224.462 97.8873 214.289 97.8873C207.312 97.9168 202.109 95.6752 200.045 94.7313Z" fill="black"/>
<path d="M271 89.0092L269.43 96.324C267.57 97.1204 263.878 97.9168 260.448 97.9168C251.234 97.9168 247.339 93.0795 247.339 86.2071V66.0913H236.845V59.5138H247.339V49.2199H255.042V59.4843H269.954V66.0618H255.042V83.7885C255.042 88.6257 257.542 90.8084 261.902 90.8084C264.373 90.8084 268.936 90.248 271 89.0092Z" fill="black"/>
</g>
<path d="M169.793 134.548H171.443V141.952H171.521L177.864 134.548H180.005V134.627L174.801 140.636L180.378 148.53V148.609H178.355L173.662 141.912L171.443 144.485V148.609H169.793V134.548ZM184.664 148.923C183.957 148.923 183.315 148.785 182.739 148.511C182.177 148.222 181.731 147.83 181.404 147.332C181.09 146.822 180.933 146.252 180.933 145.624C180.933 144.59 181.319 143.784 182.091 143.208C182.877 142.632 183.878 142.344 185.096 142.344C185.698 142.344 186.242 142.41 186.726 142.541C187.21 142.672 187.597 142.816 187.885 142.973V142.462C187.885 141.991 187.76 141.572 187.511 141.205C187.276 140.826 186.955 140.538 186.549 140.341C186.143 140.132 185.705 140.027 185.233 140.027C184.121 140.027 183.27 140.479 182.681 141.382L181.286 140.459C181.705 139.857 182.242 139.392 182.897 139.065C183.564 138.724 184.317 138.554 185.155 138.554C186.49 138.554 187.544 138.914 188.317 139.634C189.089 140.354 189.475 141.323 189.475 142.541V148.609H187.885V147.175H187.806C187.492 147.673 187.066 148.092 186.53 148.432C185.993 148.759 185.371 148.923 184.664 148.923ZM184.801 147.45C185.325 147.45 185.823 147.313 186.294 147.038C186.765 146.763 187.145 146.39 187.433 145.918C187.734 145.447 187.885 144.936 187.885 144.387C187.151 143.915 186.307 143.68 185.351 143.68C184.526 143.68 183.865 143.869 183.368 144.249C182.883 144.616 182.641 145.087 182.641 145.663C182.641 146.187 182.857 146.619 183.289 146.959C183.721 147.286 184.225 147.45 184.801 147.45ZM191.762 138.868H193.353V140.322H193.431C193.706 139.824 194.138 139.405 194.727 139.065C195.317 138.724 195.945 138.554 196.613 138.554C197.804 138.554 198.707 138.901 199.323 139.595C199.951 140.289 200.265 141.238 200.265 142.442V148.609H198.616V142.698C198.616 141.755 198.4 141.081 197.968 140.675C197.549 140.269 196.947 140.066 196.161 140.066C195.637 140.066 195.166 140.217 194.747 140.518C194.328 140.819 194.001 141.212 193.765 141.696C193.543 142.181 193.431 142.691 193.431 143.228V148.609H191.762V138.868ZM205.977 148.923C204.942 148.923 204.065 148.661 203.345 148.137C202.625 147.614 202.121 146.966 201.833 146.193L203.325 145.545C203.574 146.161 203.934 146.632 204.405 146.959C204.89 147.286 205.414 147.45 205.977 147.45C206.605 147.45 207.122 147.313 207.528 147.038C207.947 146.763 208.156 146.429 208.156 146.036C208.156 145.657 207.999 145.342 207.685 145.094C207.384 144.845 206.86 144.629 206.114 144.446L204.779 144.112C204.045 143.941 203.417 143.634 202.893 143.189C202.383 142.744 202.128 142.154 202.128 141.421C202.128 140.819 202.298 140.302 202.638 139.87C202.992 139.438 203.456 139.111 204.032 138.888C204.608 138.665 205.237 138.554 205.918 138.554C206.755 138.554 207.515 138.751 208.196 139.143C208.889 139.523 209.38 140.066 209.668 140.773L208.196 141.402C207.986 140.93 207.665 140.583 207.233 140.361C206.814 140.138 206.343 140.027 205.819 140.027C205.309 140.027 204.844 140.151 204.425 140.4C204.019 140.649 203.816 140.97 203.816 141.362C203.816 141.703 203.947 141.971 204.209 142.168C204.484 142.364 204.916 142.541 205.505 142.698L206.958 143.051C207.927 143.3 208.647 143.673 209.119 144.171C209.603 144.655 209.845 145.238 209.845 145.918C209.845 146.481 209.681 146.992 209.354 147.45C209.027 147.908 208.569 148.268 207.98 148.53C207.39 148.792 206.723 148.923 205.977 148.923ZM214.888 148.923C214.181 148.923 213.539 148.785 212.963 148.511C212.4 148.222 211.955 147.83 211.628 147.332C211.314 146.822 211.156 146.252 211.156 145.624C211.156 144.59 211.543 143.784 212.315 143.208C213.101 142.632 214.102 142.344 215.32 142.344C215.922 142.344 216.465 142.41 216.95 142.541C217.434 142.672 217.82 142.816 218.108 142.973V142.462C218.108 141.991 217.984 141.572 217.735 141.205C217.499 140.826 217.179 140.538 216.773 140.341C216.367 140.132 215.928 140.027 215.457 140.027C214.344 140.027 213.493 140.479 212.904 141.382L211.51 140.459C211.929 139.857 212.466 139.392 213.12 139.065C213.788 138.724 214.541 138.554 215.379 138.554C216.714 138.554 217.768 138.914 218.54 139.634C219.313 140.354 219.699 141.323 219.699 142.541V148.609H218.108V147.175H218.03C217.715 147.673 217.29 148.092 216.753 148.432C216.216 148.759 215.595 148.923 214.888 148.923ZM215.025 147.45C215.549 147.45 216.046 147.313 216.518 147.038C216.989 146.763 217.368 146.39 217.656 145.918C217.958 145.447 218.108 144.936 218.108 144.387C217.375 143.915 216.531 143.68 215.575 143.68C214.75 143.68 214.089 143.869 213.591 144.249C213.107 144.616 212.865 145.087 212.865 145.663C212.865 146.187 213.081 146.619 213.513 146.959C213.945 147.286 214.449 147.45 215.025 147.45ZM225.327 148.923C224.292 148.923 223.415 148.661 222.695 148.137C221.975 147.614 221.471 146.966 221.183 146.193L222.675 145.545C222.924 146.161 223.284 146.632 223.756 146.959C224.24 147.286 224.764 147.45 225.327 147.45C225.955 147.45 226.472 147.313 226.878 147.038C227.297 146.763 227.506 146.429 227.506 146.036C227.506 145.657 227.349 145.342 227.035 145.094C226.734 144.845 226.21 144.629 225.464 144.446L224.129 144.112C223.395 143.941 222.767 143.634 222.243 143.189C221.733 142.744 221.478 142.154 221.478 141.421C221.478 140.819 221.648 140.302 221.988 139.87C222.342 139.438 222.806 139.111 223.382 138.888C223.958 138.665 224.587 138.554 225.268 138.554C226.105 138.554 226.865 138.751 227.546 139.143C228.239 139.523 228.73 140.066 229.018 140.773L227.546 141.402C227.336 140.93 227.015 140.583 226.583 140.361C226.164 140.138 225.693 140.027 225.169 140.027C224.659 140.027 224.194 140.151 223.775 140.4C223.369 140.649 223.166 140.97 223.166 141.362C223.166 141.703 223.297 141.971 223.559 142.168C223.834 142.364 224.266 142.541 224.855 142.698L226.308 143.051C227.277 143.3 227.997 143.673 228.469 144.171C228.953 144.655 229.195 145.238 229.195 145.918C229.195 146.481 229.032 146.992 228.704 147.45C228.377 147.908 227.919 148.268 227.33 148.53C226.74 148.792 226.073 148.923 225.327 148.923ZM242.073 148.923C240.725 148.923 239.494 148.602 238.381 147.961C237.268 147.319 236.391 146.435 235.75 145.31C235.121 144.184 234.807 142.94 234.807 141.578C234.807 140.217 235.121 138.973 235.75 137.847C236.391 136.721 237.268 135.838 238.381 135.196C239.494 134.555 240.725 134.234 242.073 134.234C243.134 134.234 244.096 134.437 244.96 134.843C245.837 135.235 246.59 135.798 247.218 136.532L246.04 137.69C245.516 137.049 244.927 136.577 244.273 136.276C243.631 135.975 242.898 135.825 242.073 135.825C241.065 135.825 240.136 136.067 239.285 136.551C238.434 137.022 237.753 137.697 237.242 138.574C236.745 139.438 236.496 140.439 236.496 141.578C236.496 142.717 236.745 143.725 237.242 144.603C237.753 145.467 238.434 146.141 239.285 146.625C240.136 147.097 241.065 147.332 242.073 147.332C243.788 147.332 245.241 146.632 246.433 145.231L247.631 146.409C246.989 147.182 246.191 147.797 245.235 148.255C244.279 148.7 243.225 148.923 242.073 148.923ZM250.468 136.826C250.141 136.826 249.859 136.708 249.624 136.473C249.388 136.237 249.27 135.955 249.27 135.628C249.27 135.301 249.388 135.019 249.624 134.784C249.859 134.548 250.141 134.43 250.468 134.43C250.795 134.43 251.077 134.548 251.313 134.784C251.548 135.019 251.666 135.301 251.666 135.628C251.666 135.955 251.548 136.237 251.313 136.473C251.09 136.708 250.809 136.826 250.468 136.826ZM249.643 138.868H251.313V148.609H249.643V138.868ZM257.533 148.766C257.14 148.766 256.773 148.7 256.433 148.569C256.106 148.439 255.824 148.262 255.589 148.039C255.327 147.79 255.13 147.502 255 147.175C254.882 146.835 254.823 146.435 254.823 145.977V140.381H253.095V138.868H254.823V135.962H256.472V138.868H258.868V140.381H256.472V145.565C256.472 146.115 256.584 146.521 256.806 146.782C257.055 147.07 257.395 147.214 257.827 147.214C258.233 147.214 258.587 147.123 258.888 146.94V148.55C258.678 148.628 258.475 148.681 258.279 148.707C258.096 148.746 257.847 148.766 257.533 148.766ZM263.881 147.98L259.836 138.868H261.643L264.667 146.036H264.706L267.632 138.868H269.439L263.351 152.85H261.643L263.881 147.98Z" fill="black"/>
<g clip-path="url(#clip2_160_7633)">
<path d="M51.1005 15.5904C49.9833 14.9507 49.0963 14.0637 48.4481 12.938C47.7999 11.8122 47.4758 10.567 47.4758 9.20241C47.4758 7.83783 47.7999 6.59264 48.4481 5.46686C49.0963 4.34108 49.9833 3.45411 51.1005 2.81446C52.2178 2.17482 53.4373 1.85072 54.7593 1.85072C55.7912 1.85072 56.7635 2.02981 57.6761 2.39654C58.5886 2.76327 59.3392 3.28353 59.9277 3.94876L58.7336 5.1513C58.2901 4.59694 57.7187 4.17905 57.0108 3.88054C56.3115 3.58204 55.561 3.43704 54.7593 3.43704C53.7785 3.43704 52.8574 3.67586 51.996 4.15347C51.1346 4.63107 50.4523 5.30483 49.9321 6.17475C49.4118 7.04467 49.156 8.05103 49.156 9.19387C49.156 10.3367 49.4118 11.3346 49.9321 12.2045C50.4523 13.0744 51.1346 13.7482 51.996 14.2258C52.8574 14.7034 53.7699 14.9422 54.7593 14.9422C55.7486 14.9422 56.4906 14.7972 57.1302 14.4987C57.7614 14.2002 58.3157 13.8164 58.7933 13.3303C59.1345 12.9635 59.4074 12.52 59.6206 11.9913C59.8338 11.4625 59.9532 10.8996 59.9959 10.2855H54.8105V8.73335H61.5651C61.6334 9.10008 61.6675 9.44121 61.6675 9.75677C61.6675 10.6182 61.531 11.4625 61.2581 12.2813C60.9852 13.1 60.5417 13.8164 59.9447 14.4305C58.6228 15.8292 56.9 16.5285 54.7763 16.5285C53.4544 16.5285 52.2348 16.2044 51.1176 15.5648L51.1005 15.5904Z" fill="black"/>
<path d="M65.3263 15.8718C64.5673 15.4198 63.9703 14.7972 63.5524 14.004C63.1259 13.2109 62.9127 12.3324 62.9127 11.3602C62.9127 10.3879 63.1259 9.50944 63.5524 8.71628C63.9788 7.92311 64.5673 7.30052 65.3263 6.8485C66.0854 6.39648 66.9467 6.17476 67.902 6.17476C68.8572 6.17476 69.7186 6.39648 70.4861 6.8485C71.2537 7.30052 71.8507 7.92311 72.2772 8.71628C72.7036 9.50944 72.9168 10.3879 72.9168 11.3602C72.9168 12.3324 72.7036 13.2109 72.2772 14.004C71.8507 14.7972 71.2537 15.4198 70.4861 15.8718C69.7186 16.3238 68.8572 16.5456 67.902 16.5456C66.9467 16.5456 66.0854 16.3238 65.3263 15.8718ZM69.548 14.584C70.0597 14.2855 70.4691 13.8505 70.7761 13.2962C71.0831 12.7418 71.2367 12.0936 71.2367 11.3602C71.2367 10.6267 71.0831 9.97853 70.7761 9.42417C70.4691 8.86981 70.0597 8.43484 69.548 8.13634C69.0363 7.83783 68.4904 7.68432 67.902 7.68432C67.3135 7.68432 66.7847 7.83783 66.273 8.13634C65.7613 8.43484 65.3519 8.86981 65.0449 9.42417C64.7378 9.97853 64.5843 10.6267 64.5843 11.3602C64.5843 12.0936 64.7378 12.7418 65.0449 13.2962C65.3519 13.8505 65.7613 14.2855 66.273 14.584C66.7847 14.8825 67.3305 15.036 67.902 15.036C68.4734 15.036 69.0448 14.8825 69.548 14.584Z" fill="black"/>
<path d="M76.4647 15.8718C75.7057 15.4198 75.1087 14.7972 74.6908 14.004C74.2644 13.2109 74.0511 12.3324 74.0511 11.3602C74.0511 10.3879 74.2644 9.50944 74.6908 8.71628C75.1172 7.92311 75.7057 7.30052 76.4647 6.8485C77.2238 6.39648 78.0852 6.17476 79.0404 6.17476C79.9956 6.17476 80.857 6.39648 81.6246 6.8485C82.3921 7.30052 82.9891 7.92311 83.4156 8.71628C83.842 9.50944 84.0552 10.3879 84.0552 11.3602C84.0552 12.3324 83.842 13.2109 83.4156 14.004C82.9891 14.7972 82.3921 15.4198 81.6246 15.8718C80.857 16.3238 79.9956 16.5456 79.0404 16.5456C78.0852 16.5456 77.2238 16.3238 76.4647 15.8718ZM80.6864 14.584C81.1981 14.2855 81.6075 13.8505 81.9146 13.2962C82.2216 12.7418 82.3751 12.0936 82.3751 11.3602C82.3751 10.6267 82.2216 9.97853 81.9146 9.42417C81.6075 8.86981 81.1981 8.43484 80.6864 8.13634C80.1747 7.83783 79.6289 7.68432 79.0404 7.68432C78.4519 7.68432 77.9232 7.83783 77.4114 8.13634C76.8997 8.43484 76.4903 8.86981 76.1833 9.42417C75.8763 9.97853 75.7228 10.6267 75.7228 11.3602C75.7228 12.0936 75.8763 12.7418 76.1833 13.2962C76.4903 13.8505 76.8997 14.2855 77.4114 14.584C77.9232 14.8825 78.469 15.036 79.0404 15.036C79.6118 15.036 80.1832 14.8825 80.6864 14.584Z" fill="black"/>
<path d="M87.134 19.9485C86.3835 19.3856 85.8803 18.7289 85.6244 17.9869L87.1766 17.3388C87.3728 17.9102 87.7225 18.3792 88.2257 18.746C88.7289 19.1042 89.3259 19.2833 90.0252 19.2833C91.0572 19.2833 91.8589 18.9848 92.4132 18.3792C92.9676 17.7822 93.249 16.9379 93.249 15.8633V14.8228H93.1723C92.8567 15.3175 92.4047 15.7354 91.8162 16.0595C91.2278 16.3835 90.5625 16.5541 89.812 16.5541C88.9847 16.5541 88.2171 16.3324 87.5178 15.8804C86.8099 15.4369 86.247 14.8143 85.8291 14.0296C85.4112 13.245 85.198 12.358 85.198 11.3687C85.198 10.3794 85.4112 9.49241 85.8291 8.70777C86.247 7.92314 86.8099 7.30053 87.5178 6.85704C88.2257 6.41355 88.9932 6.18327 89.812 6.18327C90.5625 6.18327 91.2278 6.34533 91.8162 6.67795C92.4047 7.00204 92.8567 7.41993 93.1723 7.91459H93.249V6.49885H94.8439V15.8462C94.8439 16.9209 94.6307 17.8334 94.2128 18.5754C93.7949 19.3259 93.2235 19.8803 92.49 20.247C91.7651 20.6138 90.9378 20.7928 90.0252 20.7928C88.8483 20.7928 87.8845 20.5114 87.134 19.9485ZM91.6542 14.5925C92.1403 14.294 92.5241 13.8761 92.8226 13.3218C93.1211 12.7674 93.2661 12.1192 93.2661 11.3687C93.2661 10.6182 93.1211 9.96146 92.8226 9.4071C92.5241 8.84421 92.1403 8.42631 91.6542 8.13634C91.1681 7.84637 90.6393 7.70137 90.0593 7.70137C89.4794 7.70137 88.9506 7.84637 88.4645 8.14488C87.9784 8.44338 87.5946 8.86127 87.2961 9.41564C86.9976 9.97 86.8526 10.6182 86.8526 11.3687C86.8526 12.1192 86.9976 12.7674 87.2961 13.3218C87.5946 13.8761 87.9784 14.3026 88.4645 14.5925C88.9506 14.891 89.4794 15.036 90.0593 15.036C90.6393 15.036 91.1681 14.891 91.6542 14.5925Z" fill="black"/>
<path d="M96.8311 2.17482H98.5027V16.2385H96.8311V2.17482Z" fill="black"/>
<path d="M102.4 15.8804C101.658 15.4369 101.078 14.8228 100.66 14.0296C100.243 13.245 100.029 12.358 100.029 11.3602C100.029 10.4135 100.225 9.5521 100.618 8.75894C101.01 7.96577 101.573 7.33463 102.298 6.87409C103.023 6.41354 103.859 6.17476 104.805 6.17476C105.752 6.17476 106.579 6.38798 107.287 6.81441C108.004 7.24084 108.549 7.83783 108.925 8.61394C109.308 9.39005 109.496 10.277 109.496 11.2834C109.496 11.471 109.479 11.599 109.453 11.6757H101.718C101.744 12.4092 101.923 13.0233 102.247 13.535C102.571 14.0382 102.98 14.4134 103.475 14.6607C103.97 14.9081 104.473 15.036 104.993 15.036C106.221 15.036 107.176 14.4305 107.842 13.2279L109.317 13.9358C108.899 14.7204 108.319 15.3516 107.577 15.8292C106.835 16.3068 105.948 16.5456 104.916 16.5456C103.97 16.5456 103.134 16.3239 102.392 15.8804H102.4ZM107.731 10.2855C107.705 9.89323 107.594 9.50093 107.398 9.10861C107.202 8.7163 106.886 8.38367 106.443 8.11075C106.008 7.83784 105.445 7.70137 104.763 7.70137C104.029 7.70137 103.398 7.94018 102.861 8.40926C102.324 8.87834 101.982 9.50945 101.837 10.2941H107.731V10.2855Z" fill="black"/>
<path d="M115.884 2.17481H120.148C121.59 2.17481 122.843 2.4733 123.918 3.07031C124.993 3.66731 125.82 4.49459 126.391 5.55214C126.971 6.6097 127.253 7.82929 127.253 9.2024C127.253 10.5755 126.963 11.7951 126.391 12.8527C125.811 13.9102 124.993 14.7375 123.918 15.3345C122.843 15.9315 121.59 16.23 120.148 16.23H115.884V2.16628V2.17481ZM120.148 14.6437C121.811 14.6437 123.125 14.1661 124.097 13.2109C125.069 12.2557 125.547 10.9167 125.547 9.2024C125.547 7.48814 125.061 6.14914 124.097 5.19393C123.125 4.23872 121.811 3.76113 120.148 3.76113H117.556V14.6437H120.148Z" fill="black"/>
<path d="M131.04 15.8804C130.298 15.4369 129.718 14.8228 129.3 14.0296C128.882 13.245 128.669 12.358 128.669 11.3602C128.669 10.4135 128.865 9.5521 129.257 8.75894C129.649 7.96577 130.212 7.33463 130.937 6.87409C131.662 6.41354 132.498 6.17476 133.445 6.17476C134.391 6.17476 135.219 6.38798 135.926 6.81441C136.643 7.24084 137.189 7.83783 137.564 8.61394C137.948 9.39005 138.135 10.277 138.135 11.2834C138.135 11.471 138.118 11.599 138.093 11.6757H130.357C130.383 12.4092 130.562 13.0233 130.886 13.535C131.21 14.0382 131.619 14.4134 132.114 14.6607C132.609 14.9081 133.112 15.036 133.632 15.036C134.86 15.036 135.816 14.4305 136.481 13.2279L137.956 13.9358C137.538 14.7204 136.958 15.3516 136.216 15.8292C135.474 16.3068 134.587 16.5456 133.556 16.5456C132.609 16.5456 131.773 16.3239 131.031 15.8804H131.04ZM136.37 10.2855C136.344 9.89323 136.233 9.50093 136.037 9.10861C135.841 8.7163 135.526 8.38367 135.082 8.11075C134.647 7.83784 134.084 7.70137 133.402 7.70137C132.669 7.70137 132.037 7.94018 131.5 8.40926C130.963 8.87834 130.622 9.50945 130.477 10.2941H136.37V10.2855Z" fill="black"/>
<path d="M138.536 6.49031H140.344L143.329 14.2684H143.372L146.4 6.49031H148.165L144.174 16.23H142.485L138.536 6.49031Z" fill="black"/>
<path d="M151.21 15.8804C150.468 15.4369 149.888 14.8228 149.47 14.0296C149.052 13.245 148.839 12.358 148.839 11.3602C148.839 10.4135 149.035 9.5521 149.427 8.75894C149.82 7.96577 150.382 7.33463 151.107 6.87409C151.832 6.41354 152.668 6.17476 153.615 6.17476C154.561 6.17476 155.389 6.38798 156.097 6.81441C156.813 7.24084 157.359 7.83783 157.734 8.61394C158.118 9.39005 158.306 10.277 158.306 11.2834C158.306 11.471 158.288 11.599 158.263 11.6757H150.527C150.553 12.4092 150.732 13.0233 151.056 13.535C151.38 14.0382 151.79 14.4134 152.284 14.6607C152.779 14.9081 153.282 15.036 153.802 15.036C155.031 15.036 155.986 14.4305 156.651 13.2279L158.126 13.9358C157.709 14.7204 157.129 15.3516 156.387 15.8292C155.645 16.3068 154.758 16.5456 153.726 16.5456C152.779 16.5456 151.943 16.3239 151.201 15.8804H151.21ZM156.54 10.2855C156.515 9.89323 156.404 9.50093 156.207 9.10861C156.011 8.7163 155.696 8.38367 155.252 8.11075C154.817 7.83784 154.254 7.70137 153.572 7.70137C152.839 7.70137 152.208 7.94018 151.67 8.40926C151.133 8.87834 150.792 9.50945 150.647 10.2941H156.54V10.2855Z" fill="black"/>
<path d="M160.003 2.17482H161.674V16.2385H160.003V2.17482Z" fill="black"/>
<path d="M165.674 15.8718C164.915 15.4198 164.318 14.7972 163.9 14.004C163.474 13.2109 163.261 12.3324 163.261 11.3602C163.261 10.3879 163.474 9.50944 163.9 8.71628C164.327 7.92311 164.915 7.30052 165.674 6.8485C166.433 6.39648 167.295 6.17476 168.25 6.17476C169.205 6.17476 170.067 6.39648 170.834 6.8485C171.602 7.30052 172.199 7.92311 172.625 8.71628C173.052 9.50944 173.265 10.3879 173.265 11.3602C173.265 12.3324 173.052 13.2109 172.625 14.004C172.199 14.7972 171.602 15.4198 170.834 15.8718C170.067 16.3238 169.205 16.5456 168.25 16.5456C167.295 16.5456 166.433 16.3238 165.674 15.8718ZM169.896 14.584C170.408 14.2855 170.817 13.8505 171.124 13.2962C171.431 12.7418 171.585 12.0936 171.585 11.3602C171.585 10.6267 171.431 9.97853 171.124 9.42417C170.817 8.86981 170.408 8.43484 169.896 8.13634C169.384 7.83783 168.839 7.68432 168.25 7.68432C167.662 7.68432 167.133 7.83783 166.621 8.13634C166.109 8.43484 165.7 8.86981 165.393 9.42417C165.086 9.97853 164.932 10.6267 164.932 11.3602C164.932 12.0936 165.086 12.7418 165.393 13.2962C165.7 13.8505 166.109 14.2855 166.621 14.584C167.133 14.8825 167.679 15.036 168.25 15.036C168.821 15.036 169.393 14.8825 169.896 14.584Z" fill="black"/>
<path d="M174.774 6.49031H176.369V7.92312H176.446C176.762 7.42846 177.214 7.01056 177.802 6.67795C178.391 6.34533 179.073 6.17476 179.849 6.17476C180.685 6.17476 181.461 6.39648 182.169 6.8485C182.877 7.30052 183.44 7.92313 183.857 8.70776C184.275 9.4924 184.489 10.3794 184.489 11.3602C184.489 12.341 184.275 13.2279 183.857 14.0126C183.44 14.7972 182.877 15.4198 182.169 15.8718C181.461 16.3238 180.693 16.5456 179.849 16.5456C179.073 16.5456 178.391 16.375 177.794 16.0424C177.197 15.7098 176.753 15.2833 176.446 14.7716H176.369L176.446 16.1277V20.4687H174.774V6.48178V6.49031ZM181.188 14.584C181.683 14.2855 182.075 13.8505 182.365 13.2961C182.663 12.7418 182.808 12.0936 182.808 11.3602C182.808 10.6267 182.663 9.97853 182.365 9.42417C182.066 8.86981 181.674 8.43484 181.188 8.13633C180.693 7.83783 180.165 7.68432 179.585 7.68432C179.005 7.68432 178.476 7.8293 177.981 8.1278C177.487 8.4263 177.094 8.8442 176.804 9.40709C176.506 9.96145 176.361 10.6182 176.361 11.3602C176.361 12.1021 176.506 12.7418 176.804 13.3047C177.103 13.8676 177.495 14.294 177.981 14.5925C178.467 14.891 179.005 15.036 179.585 15.036C180.165 15.036 180.693 14.8825 181.188 14.584Z" fill="black"/>
<path d="M188.369 15.8804C187.627 15.4369 187.047 14.8228 186.629 14.0296C186.211 13.245 185.998 12.358 185.998 11.3602C185.998 10.4135 186.194 9.5521 186.587 8.75894C186.979 7.96577 187.542 7.33463 188.267 6.87409C188.992 6.41354 189.827 6.17476 190.774 6.17476C191.721 6.17476 192.548 6.38798 193.256 6.81441C193.972 7.24084 194.518 7.83783 194.893 8.61394C195.277 9.39005 195.465 10.277 195.465 11.2834C195.465 11.471 195.448 11.599 195.422 11.6757H187.687C187.712 12.4092 187.891 13.0233 188.215 13.535C188.54 14.0382 188.949 14.4134 189.444 14.6607C189.938 14.9081 190.441 15.036 190.962 15.036C192.19 15.036 193.145 14.4305 193.81 13.2279L195.286 13.9358C194.868 14.7204 194.288 15.3516 193.546 15.8292C192.804 16.3068 191.917 16.5456 190.885 16.5456C189.938 16.5456 189.102 16.3239 188.36 15.8804H188.369ZM193.699 10.2855C193.674 9.89323 193.563 9.50093 193.367 9.10861C193.171 8.7163 192.855 8.38367 192.412 8.11075C191.977 7.83784 191.414 7.70137 190.731 7.70137C189.998 7.70137 189.367 7.94018 188.83 8.40926C188.292 8.87834 187.951 9.50945 187.806 10.2941H193.699V10.2855Z" fill="black"/>
<path d="M197.162 6.49032H198.757V8.08517H198.834C199.013 7.54787 199.397 7.09585 199.96 6.72912C200.531 6.36239 201.094 6.18327 201.657 6.18327C202.066 6.18327 202.441 6.25151 202.8 6.37944V8.17046C202.45 7.9743 201.989 7.87195 201.426 7.87195C200.966 7.87195 200.539 8.00841 200.139 8.2728C199.738 8.54572 199.422 8.90393 199.183 9.34742C198.945 9.79091 198.834 10.277 198.834 10.8058V16.2386H197.162V6.49885V6.49032Z" fill="black"/>
<path d="M211.388 15.5904C210.271 14.9507 209.384 14.0637 208.735 12.938C208.087 11.8122 207.763 10.567 207.763 9.20241C207.763 7.83783 208.087 6.59264 208.735 5.46686C209.384 4.34108 210.271 3.45411 211.388 2.81446C212.505 2.17482 213.725 1.85072 215.047 1.85072C216.079 1.85072 217.051 2.02981 217.963 2.39654C218.876 2.76327 219.627 3.28353 220.215 3.94876L219.021 5.1513C218.578 4.59694 218.006 4.17905 217.298 3.88054C216.599 3.58204 215.848 3.43704 215.047 3.43704C214.066 3.43704 213.145 3.67586 212.283 4.15347C211.422 4.63107 210.74 5.30483 210.219 6.17475C209.699 7.04467 209.443 8.05103 209.443 9.19387C209.443 10.3367 209.699 11.3346 210.219 12.2045C210.74 13.0744 211.422 13.7482 212.283 14.2258C213.145 14.7034 214.057 14.9422 215.047 14.9422C216.036 14.9422 216.778 14.7972 217.418 14.4987C218.049 14.2002 218.603 13.8164 219.081 13.3303C219.422 12.9635 219.695 12.52 219.908 11.9913C220.121 11.4625 220.241 10.8996 220.283 10.2855H215.098V8.73335H221.853C221.921 9.10008 221.955 9.44121 221.955 9.75677C221.955 10.6182 221.818 11.4625 221.545 12.2813C221.273 13.1 220.829 13.8164 220.232 14.4305C218.91 15.8292 217.187 16.5285 215.064 16.5285C213.742 16.5285 212.522 16.2044 211.405 15.5648L211.388 15.5904Z" fill="black"/>
<path d="M223.857 6.49032H225.452V8.08517H225.528C225.707 7.54787 226.091 7.09585 226.654 6.72912C227.226 6.36239 227.788 6.18327 228.351 6.18327C228.761 6.18327 229.136 6.25151 229.494 6.37944V8.17046C229.144 7.9743 228.684 7.87195 228.121 7.87195C227.66 7.87195 227.234 8.00841 226.833 8.2728C226.432 8.54572 226.117 8.90393 225.878 9.34742C225.639 9.79091 225.528 10.277 225.528 10.8058V16.2386H223.857V6.49885V6.49032Z" fill="black"/>
<path d="M232.121 15.8718C231.362 15.4198 230.765 14.7972 230.347 14.004C229.921 13.2109 229.707 12.3324 229.707 11.3602C229.707 10.3879 229.921 9.50944 230.347 8.71628C230.773 7.92311 231.362 7.30052 232.121 6.8485C232.88 6.39648 233.741 6.17476 234.697 6.17476C235.652 6.17476 236.513 6.39648 237.281 6.8485C238.048 7.30052 238.645 7.92311 239.072 8.71628C239.498 9.50944 239.711 10.3879 239.711 11.3602C239.711 12.3324 239.498 13.2109 239.072 14.004C238.645 14.7972 238.048 15.4198 237.281 15.8718C236.513 16.3238 235.652 16.5456 234.697 16.5456C233.741 16.5456 232.88 16.3238 232.121 15.8718ZM236.343 14.584C236.854 14.2855 237.264 13.8505 237.571 13.2962C237.878 12.7418 238.031 12.0936 238.031 11.3602C238.031 10.6267 237.878 9.97853 237.571 9.42417C237.264 8.86981 236.854 8.43484 236.343 8.13634C235.831 7.83783 235.285 7.68432 234.697 7.68432C234.108 7.68432 233.579 7.83783 233.068 8.13634C232.556 8.43484 232.147 8.86981 231.84 9.42417C231.533 9.97853 231.379 10.6267 231.379 11.3602C231.379 12.0936 231.533 12.7418 231.84 13.2962C232.147 13.8505 232.556 14.2855 233.068 14.584C233.579 14.8825 234.125 15.036 234.697 15.036C235.268 15.036 235.839 14.8825 236.343 14.584Z" fill="black"/>
<path d="M242.151 15.5051C241.528 14.8143 241.221 13.8505 241.221 12.6224V6.4903H242.893V12.3409C242.893 14.132 243.694 15.0275 245.306 15.0275C245.844 15.0275 246.321 14.8739 246.748 14.5754C247.174 14.2769 247.498 13.8846 247.728 13.3985C247.959 12.9124 248.07 12.4006 248.07 11.8633V6.48177H249.716V16.2215H248.146V14.7716H248.07C247.78 15.2663 247.345 15.6927 246.765 16.0253C246.185 16.3665 245.554 16.537 244.888 16.537C243.686 16.537 242.773 16.1874 242.151 15.4965V15.5051Z" fill="black"/>
<path d="M251.899 6.49031H253.494V7.92312H253.57C253.886 7.42846 254.338 7.01056 254.927 6.67795C255.515 6.34533 256.197 6.17476 256.973 6.17476C257.809 6.17476 258.585 6.39648 259.293 6.8485C260.001 7.30052 260.564 7.92313 260.982 8.70776C261.4 9.4924 261.613 10.3794 261.613 11.3602C261.613 12.341 261.4 13.2279 260.982 14.0126C260.564 14.7972 260.001 15.4198 259.293 15.8718C258.585 16.3238 257.818 16.5456 256.973 16.5456C256.197 16.5456 255.515 16.375 254.918 16.0424C254.321 15.7098 253.877 15.2833 253.57 14.7716H253.494L253.57 16.1277V20.4687H251.899V6.48178V6.49031ZM258.312 14.584C258.807 14.2855 259.199 13.8505 259.489 13.2961C259.788 12.7418 259.933 12.0936 259.933 11.3602C259.933 10.6267 259.788 9.97853 259.489 9.42417C259.191 8.86981 258.798 8.43484 258.312 8.13633C257.818 7.83783 257.289 7.68432 256.709 7.68432C256.129 7.68432 255.6 7.8293 255.106 8.1278C254.611 8.4263 254.219 8.8442 253.929 9.40709C253.63 9.96145 253.485 10.6182 253.485 11.3602C253.485 12.1021 253.63 12.7418 253.929 13.3047C254.227 13.8676 254.619 14.294 255.106 14.5925C255.592 14.891 256.129 15.036 256.709 15.036C257.289 15.036 257.818 14.8825 258.312 14.584Z" fill="black"/>
<path d="M264.001 15.7609C263.285 15.2407 262.773 14.5925 262.491 13.8164L263.967 13.1682C264.231 13.7823 264.598 14.2514 265.076 14.584C265.553 14.9166 266.073 15.0787 266.636 15.0787C267.267 15.0787 267.788 14.9422 268.197 14.6693C268.606 14.3964 268.82 14.0637 268.82 13.6714C268.82 13.2791 268.666 12.9806 268.359 12.7247C268.052 12.4774 267.523 12.2642 266.781 12.0766L265.442 11.744C264.709 11.5734 264.086 11.2663 263.566 10.8229C263.046 10.3794 262.79 9.7909 262.79 9.05744C262.79 8.45191 262.96 7.94018 263.31 7.50522C263.66 7.07026 264.12 6.74618 264.692 6.52443C265.272 6.30269 265.894 6.1918 266.577 6.1918C267.412 6.1918 268.18 6.38796 268.862 6.77174C269.553 7.15553 270.039 7.70138 270.329 8.40926L268.854 9.04037C268.641 8.57129 268.325 8.22162 267.899 7.99987C267.472 7.77813 266.995 7.66727 266.474 7.66727C265.954 7.66727 265.502 7.7952 265.093 8.04253C264.683 8.28986 264.47 8.61393 264.47 9.00625C264.47 9.34739 264.607 9.61178 264.871 9.80794C265.135 10.0041 265.57 10.1832 266.159 10.3367L267.609 10.6864C268.581 10.9337 269.297 11.309 269.775 11.7951C270.253 12.2898 270.491 12.8697 270.491 13.552C270.491 14.1149 270.329 14.6266 269.997 15.0872C269.664 15.5477 269.212 15.9059 268.624 16.1703C268.035 16.4347 267.37 16.5626 266.619 16.5626C265.587 16.5626 264.709 16.2982 263.984 15.778L264.001 15.7609Z" fill="black"/>
<path d="M15.5276 12.9806L4.64502 6.70352C4.15889 6.42208 3.62159 6.28563 3.10134 6.28563C2.02673 6.28563 0.986215 6.83997 0.414796 7.83782C-0.438069 9.32181 0.065136 11.2152 1.54912 12.068L12.4317 18.3451C12.9178 18.6266 13.4551 18.763 13.9754 18.763C15.05 18.763 16.0905 18.2087 16.6619 17.2108C17.5147 15.7268 17.0115 13.8335 15.5276 12.9806Z" fill="black"/>
<path d="M37.2245 6.69499L26.3419 0.417921C25.8558 0.136476 25.3185 0 24.7982 0C23.7236 0 22.6831 0.554368 22.1117 1.55222C21.2588 3.0362 21.762 4.92956 23.246 5.78242L34.1286 12.0595C34.6147 12.341 35.152 12.4774 35.6723 12.4774C36.7469 12.4774 37.7874 11.923 38.3588 10.9252C39.2116 9.44121 38.7084 7.54786 37.2245 6.69499Z" fill="black"/>
<path d="M33.6936 12.81L28.6191 9.87617L23.246 12.9806C21.762 13.8335 21.2588 15.7268 22.1117 17.2108C22.6831 18.2087 23.7236 18.763 24.7982 18.763C25.327 18.763 25.8558 18.6266 26.3419 18.3451L35.0838 13.2961C34.5976 13.2194 34.12 13.0574 33.6851 12.81H33.6936Z" fill="black"/>
<path d="M5.07997 5.95301L10.1545 8.88687L15.5276 5.78243C17.0115 4.92956 17.5147 3.03621 16.6619 1.55223C15.809 0.0682446 13.9157 -0.434934 12.4317 0.41793L3.68982 5.46687C4.17595 5.54363 4.65354 5.70568 5.0885 5.95301H5.07997Z" fill="black"/>
</g>
</mask>
<g mask="url(#mask0_160_7633)">
<rect width="271" height="154.483" fill="white"/>
</g>
</g>
<defs>
<clipPath id="clip0_160_7633">
<rect width="271" height="154.483" fill="white"/>
</clipPath>
<clipPath id="clip1_160_7633">
<rect width="271" height="69" fill="white" transform="translate(0 43.2029)"/>
</clipPath>
<clipPath id="clip2_160_7633">
<rect width="271" height="20.7928" fill="white"/>
</clipPath>
</defs>
</svg>
